<svg width="35" height="62" viewBox="0 0 35 62" fill="none" xmlns="http://www.w3.org/2000/svg">
<path d="M15.5251 0.482744C15.1351 0.512743 14.7001 0.572741 14.5501 0.610241C14.4076 0.655242 14.0326 0.737743 13.7251 0.797741C12.9676 0.947741 12.5176 1.06024 12.3376 1.15024C12.2551 1.18774 12.0451 1.25524 11.8726 1.30024C11.7001 1.34524 11.4676 1.42774 11.3476 1.48774C11.2351 1.54774 11.0926 1.60024 11.0401 1.60024C10.9951 1.60024 10.8226 1.66774 10.6726 1.75024C10.5151 1.83274 10.3501 1.90024 10.2976 1.90024C10.2451 1.90024 10.2001 1.93024 10.2001 1.96774C10.2001 2.00524 10.1101 2.05774 9.99757 2.08774C9.88507 2.11024 9.57007 2.26774 9.29257 2.43274C9.01507 2.59024 8.75257 2.72524 8.70757 2.72524C8.66257 2.72524 8.62507 2.75524 8.62507 2.78524C8.62507 2.82274 8.54257 2.89024 8.43757 2.93524C8.16757 3.05524 6.83257 4.04524 6.22507 4.56274C5.60257 5.09524 4.57507 6.17524 4.08757 6.81274C4.00507 6.91774 3.90757 7.04524 3.86257 7.09774C3.60007 7.42024 3.37507 7.75024 3.37507 7.81774C3.37507 7.86274 3.34507 7.90024 3.30757 7.90024C3.27007 7.90024 3.20257 7.99774 3.15007 8.12524C3.09757 8.24524 3.03757 8.35024 3.00757 8.35024C2.98507 8.35024 2.86507 8.54524 2.73757 8.78524C2.61757 9.01774 2.49007 9.22774 2.46757 9.25024C2.44507 9.27274 2.37757 9.41524 2.31757 9.56524C2.26507 9.72274 2.19007 9.85024 2.16007 9.85024C2.13007 9.85024 2.10007 9.88774 2.10007 9.93274C2.10007 9.97024 2.01007 10.2027 1.90507 10.4352C1.54507 11.2227 1.50007 11.3352 1.50007 11.4252C1.50007 11.4777 1.45507 11.6202 1.39507 11.7477C1.24507 12.0927 0.990073 12.9777 0.930073 13.3752C0.900073 13.5627 0.855073 13.7427 0.825073 13.7877C0.750073 13.8777 0.600073 15.0852 0.600073 15.5652C0.600073 15.7602 0.570073 15.9402 0.525073 15.9627C0.427573 16.0227 0.420073 47.5227 0.517573 47.7102C0.555073 47.7777 0.630073 47.9877 0.675073 48.1752C0.967573 49.2702 2.34757 50.4477 3.57007 50.6502C3.81007 50.6877 4.12507 50.7402 4.26007 50.7702C4.40257 50.8002 4.58257 50.7852 4.67257 50.7402C4.76257 50.6952 5.01007 50.6427 5.22757 50.6202C5.57257 50.5902 6.03007 50.4102 6.60007 50.0877C6.70507 50.0277 6.97507 49.7952 7.20757 49.5627C7.74007 49.0377 8.15257 48.2577 8.22007 47.6652C8.25007 47.4327 8.30257 47.1927 8.34007 47.1477C8.38507 47.0877 8.39257 46.9377 8.36257 46.7727C8.32507 46.6152 8.28757 43.7652 8.27257 40.4277L8.25007 34.3752H8.70007H9.15007L9.12007 43.2402C9.09757 48.1227 9.07507 52.3302 9.06757 52.6002C9.01507 54.0177 9.92257 55.4427 11.2876 56.1252L11.8126 56.3877H12.9751C14.0251 56.3877 14.1676 56.3727 14.4901 56.2152C14.6851 56.1252 14.8726 56.0502 14.9176 56.0502C14.9551 56.0502 15.0001 56.0277 15.0151 55.9902C15.0301 55.9602 15.1801 55.8402 15.3601 55.7202C15.6226 55.5402 15.9751 55.1877 16.2676 54.8052C16.4176 54.6177 16.7251 53.9802 16.7251 53.8752C16.7251 53.8077 16.7701 53.7102 16.8226 53.6652C16.8901 53.5902 16.9201 51.5277 16.9351 43.9752L16.9501 34.3752H17.2501H17.5501L17.5726 46.4652C17.5951 58.4577 17.6101 59.1777 17.8351 59.3427C17.8651 59.3727 17.9926 59.5827 18.1126 59.8227C18.3751 60.3402 19.0051 60.9552 19.5376 61.2252C19.7476 61.3302 19.9276 61.4352 19.9501 61.4652C20.0551 61.6002 20.8576 61.6902 21.7351 61.6602C22.6576 61.6377 22.7026 61.6302 23.2651 61.3527C24.1651 60.9102 25.1101 59.8452 25.2451 59.1177C25.2751 58.9752 25.3276 58.8252 25.3651 58.7727C25.4101 58.7202 25.4326 53.8452 25.4251 46.5327L25.4176 34.3752H25.9426H26.4676L26.4901 39.7152L26.5126 45.0627L26.6851 45.4152C26.7751 45.6102 26.8501 45.8052 26.8501 45.8427C26.8501 45.8877 26.8726 45.9252 26.9101 45.9252C26.9401 45.9252 27.0076 46.0152 27.0601 46.1277C27.2176 46.4877 28.3051 47.5002 28.5301 47.5002C28.5601 47.5002 28.7401 47.5752 28.9351 47.6652C29.2501 47.8227 29.4001 47.8377 30.3751 47.8377H31.4626L32.0476 47.5452C32.8051 47.1702 33.6826 46.3227 33.7951 45.8652C33.8251 45.7752 33.8701 45.7002 33.9001 45.7002C33.9376 45.7002 33.9901 45.5877 34.0126 45.4527C34.0426 45.3252 34.1026 45.1677 34.1551 45.1077C34.2601 44.9727 34.3126 16.1577 34.2076 15.3177C34.0651 14.2527 33.7501 12.6927 33.6001 12.3627C33.5626 12.2802 33.4951 12.0627 33.4426 11.8752C33.3976 11.6877 33.3376 11.5002 33.3001 11.4627C33.2701 11.4177 33.2176 11.2752 33.1876 11.1402C33.1651 11.0127 33.1126 10.9002 33.0751 10.9002C33.0451 10.9002 32.9926 10.8102 32.9701 10.6902C32.8951 10.4052 32.0176 8.65024 31.9351 8.65024C31.9051 8.65024 31.8751 8.61274 31.8751 8.56024C31.8751 8.47774 31.5226 7.91524 31.4176 7.82524C31.3951 7.80274 31.3276 7.70524 31.2751 7.60774C31.1626 7.38274 31.2001 7.42774 30.4351 6.51274C29.4826 5.36524 28.8601 4.77274 27.4051 3.63274C27.3676 3.60274 27.1801 3.47524 26.9926 3.35524C26.8126 3.23524 26.6476 3.12274 26.6251 3.10024C26.3926 2.85274 24.1126 1.72774 23.2126 1.41274C22.8826 1.30024 22.5451 1.18024 22.4626 1.14274C22.2676 1.06024 21.7876 0.94024 21.0751 0.797741C20.7676 0.737743 20.3926 0.655242 20.2501 0.617742C19.5451 0.422741 17.0851 0.355242 15.5251 0.482744ZM10.2226 14.3727C11.4001 14.8677 11.7601 16.3677 10.9351 17.3127C10.5226 17.7777 10.1476 17.9502 9.51757 17.9502C8.93257 17.9502 8.66257 17.8302 8.23507 17.3877C7.97257 17.1102 7.73257 16.5627 7.71007 16.1727C7.68757 15.9177 7.89007 15.2577 8.03257 15.0852C8.44507 14.6052 8.65507 14.4177 8.87257 14.3577C9.23257 14.2527 9.95257 14.2602 10.2226 14.3727ZM26.0701 14.4852C26.3776 14.6427 26.6476 14.9052 26.8951 15.2877C27.0076 15.4602 27.0376 15.6477 27.0376 16.1127C27.0376 16.6377 27.0151 16.7502 26.8351 17.0277C26.4001 17.6877 25.9126 17.9802 25.2376 17.9727C24.1801 17.9652 23.4001 17.2002 23.4001 16.1652C23.4001 15.6552 23.5501 15.2352 23.8351 14.9202C24.0826 14.6577 24.5176 14.3802 24.7576 14.3277C25.1026 14.2527 25.7776 14.3352 26.0701 14.4852ZM21.9826 22.1577C22.1251 22.2327 22.1026 22.4052 21.8626 23.0802C21.5926 23.8227 20.9476 24.7077 20.4901 24.9552C19.5001 25.4877 19.1551 25.5552 17.6251 25.5627C16.4851 25.5627 15.7426 25.4727 15.3826 25.3002C15.3151 25.2702 15.0976 25.1652 14.8876 25.0677C14.4901 24.8802 13.6726 24.1152 13.5226 23.8002C13.2526 23.2152 13.1851 23.0202 13.1251 22.6227C13.0951 22.3827 13.0801 22.1577 13.1026 22.1277C13.1476 22.0452 21.8326 22.0752 21.9826 22.1577Z" fill="black"/>
</svg>
